<?xml version="1.0" encoding="utf-8"?>
<!-- Generator: Adobe Illustrator 23.0.3, SVG Export Plug-In . SVG Version: 6.00 Build 0)  -->
<svg version="1.1" id="Layer_1" xmlns="http://www.w3.org/2000/svg" xmlns:xlink="http://www.w3.org/1999/xlink" x="0px" y="0px"
	 viewBox="-350 30 800 280" style="enable-background:new 0 0 500 600;" xml:space="preserve">
<style type="text/css">
	.st0{fill:none;stroke:#fafafa;stroke-width:0.876;stroke-miterlimit:10;}
	.st1{fill:none;stroke:#151717;stroke-width:0.876;stroke-miterlimit:10;}
	.st2{fill:none;stroke:#000000;stroke-width:0.876;stroke-miterlimit:10;}
</style>
<path class="st0" d="M314.47,197.05c0,0,4.72,2.66,11.99,8.01c0,0,5.06,3.61,7.77,4.85s3.16,4.1,3.16,4.1"/>
<path class="st0" d="M378.08,189.74c-3.63,2.92-14.41,11.75-20.96,14.83c0,0-6.18,1.84-10.21,3.28s-7.05,3.64-7.03,5.83"/>
<path class="st0" d="M344.67,212.6l-4.79,1.07c0,0,0.44,12.58-2.66,28.7c-3.11,16.13-6.21,29.74-8.14,35.07
	c-1.92,5.33-5.77,16.13-8.43,22.79c-2.66,6.66-6.21,16.13-7.55,26.19s-1.18,11.1-0.89,20.27c0.3,9.17,0.43,23.5,0.43,23.5
	s8.89-0.12,13.77-0.72c4.88-0.59,14.8,2.32,19.38,0.72c4.59-1.6,21.06-1.56,21.06-1.56"/>
<path class="st0" d="M396.23,197.05c0,0-5.13-3.61-11.64-3.27c-6.5,0.34-10.95,4.45-18.48,10.61c-4.83,3.95-14.72,6.74-19.9,7.85"/>
<path class="st0" d="M378.22,185.22c0,0,6.04-0.68,12.88,3.42c6.85,4.11,8.9,11.98,8.9,11.98"/>
<path class="st0" d="M305.59,197.05c0,0,15.42,14.73,20.63,15.55c5.21,0.83,11.16,1.4,11.16,1.4s1.15-2.3,0.47,8.04
	s-5.56,37.26-8.22,46.69c-2.66,9.43-11.09,29.79-15.17,44.13c-4.08,14.33-4.06,28.66-3.5,34.7s1.68,22.63,1.68,22.63
	s-4.64,3.02-13.82,0c-9.18-3.02-16.59-4.15-16.59-4.15"/>
<path class="st0" d="M398.63,208.81c0,0-9.63,19.2-9.53,30.51s2.26,32.06,4.76,39.22c2.5,7.17,2.5,7.17,2.5,7.17
	s-2.74,2.26-2.5,7.54c0.24,5.28,0.89,10.56,0,15.84c-0.89,5.28-0.89,5.28-0.89,5.28s3.3,5.66,0.89,10.56c-2.4,4.9-2.4,6.41-2.4,13.2
	s-3.56,13.95-3.66,15.46c-0.11,1.51-0.05,10.5-0.05,10.5"/>
<path class="st0" d="M261.89,348.55c0,0-0.53-13.06,0-17.96s2.49-21.87,2.49-32.81c0-10.94,2.64-21.5,3.62-32.06
	c0.98-10.56,0-21.5,0-21.5s2.48-2.64,5.27-11.31c2.8-8.67,5.53-23.01,5.53-23.01"/>
<line class="st0" x1="337.38" y1="214" x2="339.88" y2="213.67"/>
<path class="st0" d="M345.54,209.9c0,0-1.21,1.13-1.21,7.97c0,6.83,1.41,14.87,1.21,21.5c-0.15,4.96-1.41,14.08-2.04,18.36
	c-0.21,1.44-0.35,2.34-0.35,2.34s1.63-0.4,2.41-3.82c0.78-3.42,2.53-12.06,1.35-22.5c-1.17-10.45-1.46-20.2-0.27-23.21
	C346.64,210.53,346.25,209.51,345.54,209.9z"/>
<path class="st0" d="M325.92,209.81c0,0-0.69,0.07-1.26,7.04c-0.57,6.98,0.3,10.29-0.75,16.92c-1.05,6.63-2.09,11.16-2.44,16.92
	c-0.35,5.76,1.4,10.12,1.4,10.12s0.59,0.41,0.4-2.26c-0.19-2.67-0.9-4.68,0.41-12.79s1.59-8.97,1.78-15.47
	c0.19-6.49,0.35-13.59,0.46-15.5c0.11-1.91,0.38-3.59,0.71-4.46C326.96,209.48,325.92,209.81,325.92,209.81z"/>
<line class="st0" x1="322.87" y1="260.81" x2="323.27" y2="263.55"/>
<line class="st0" x1="343.14" y1="260.06" x2="341.94" y2="262.63"/>
<g>
	<rect x="285.16" y="231.92" class="st1" width="16.64" height="14.8"/>
	<polyline class="st1" points="288.08,235.29 291.2,239.32 288.08,242.95 	"/>
	<line class="st1" x1="293.48" y1="242.95" x2="299.29" y2="242.95"/>
</g>
<path class="st0" d="M267.99,244.22c0,0-2.74,11.91-6.34,15.84c-3.6,3.93-4.06,14.1-8.32,16.72c-4.26,2.62-11.07,14.86-11.07,14.86"
	/>
<path class="st0" d="M267.99,182.89c0,0-11.37,0.65-17.27,10.01c-5.89,9.36-17.95,24.12-23.86,33.94
	c-5.91,9.82-4.91,19.76-11.13,25.98c-6.22,6.22-8.18,10.8-8.18,20.63s-3.6,22.59,0,34.7c3.6,12.11,4.91,29.14,8.18,35.36
	c3.27,6.22,10.52,16.7,16.39,19.32c5.87,2.62,11.77,7.85,11.77,7.85s4.26-6.21,11.46-8.5c7.2-2.29,10.1-4.22,11.17-3.89
	c1.06,0.33-4.63-9.73-4.63-9.73s-7.48,0.12-14.69,5.68s-10.23,11.27-10.23,11.27"/>
<path class="st0" d="M226.86,268.21c0,0,14.13,7.71,12.79,13.42c-1.33,5.71,5.75,12.88,5.96,20.73c0.21,7.86,3.45,5.13,7.71,13.97
	c4.26,8.84,0.59,10.48-0.17,16.37s2.49,8.82,4.48,8.82c4.25,0,4.25,7.03,4.25,7.03"/>
<path class="st0" d="M257.64,341.52c0,0-9.5-0.72-19.32,9.09"/>
<path class="st0" d="M253.33,316.34c0,0-6.4-2.46-12.41-2.04"/>
<path class="st0" d="M247.98,256.48c0,0,6.54,8.1,5.35,20.3"/>
<path class="st0" d="M384.6,193.78c0,0,16.47,6.77,25.16,11.75c8.69,4.98,15.2,7.57,16.99,13.26s8.62,14.91,13.71,20.91
	c5.09,5.99,11.87,17.36,15.77,21.42c3.9,4.06,11.74,16.67,13.54,20.56c1.8,3.9,7.8,13.67,7.2,22.96c-0.6,9.29,4.54,7.98,0.04,19.97
	c-4.49,11.99-8.66,19.07-14.06,28.06c-5.39,8.99-26.58,18.62-29.82,23.85c-3.52,5.67-10.27,3.88-15.64,6.56
	c-5.5,2.75-5.18-1.57-6.98-8.16c-1.8-6.59-2.55-8.29-5.25-10.39c-2.7-2.1-2.7-2.1-2.7-2.1s-0.9,1.5,7.49-6.29
	c8.39-7.79,4.2-8.69,9.89-12.59c5.69-3.9,3-8.39,9.89-10.49c6.89-2.1,8.69-16.18,14.98-21.57c6.29-5.39,9.89-5.69,13.48-5.09"/>
<path class="st0" d="M396.37,285.71c0,0,4.99-1.81,11.88,0s7.48,4.45,12.18,6.52c10.69,4.71,10.85,12.05,12.21,11.88
	c3.43-0.44,2.44,9.69,9.4,10.64"/>
<path class="st0" d="M410.05,356.14c0,0,14.2,10.2,14.87,24.99"/>
<path class="st0" d="M372.93,311.48c0,0,16.59-5.41,20.94-18.23"/>
<path class="st0" d="M381.25,324.61c0,0,7.44-4.15,11.73-10.24"/>
<path class="st0" d="M387.8,353.59c0,0-0.15-2.08-12.96,0c-12.81,2.08-12.58,8.21-19.58,8.35c-7,0.14-12.12,0-12.12,0"/>
<path class="st0" d="M263.05,319.49c0,0,5.02,18.57,7.18,24.01c2.16,5.44,3.44,7.44,6.96,9.16s6.38,1.72,6.38,1.72"/>
<path class="st2" d="M326.42,369.47"/>
<g>
	<path class="st1" d="M326.45,86.91c0,0-39.26-1.31-44.93,0c-5.67,1.31-10.91,7.42-13.52,12.22c-2.62,4.8-6.11,13.09-6.11,16.14
		c0,3.05,1.31,5.24,6.11,6.54c4.8,1.31,14.83,1.31,30.97,7.85c16.14,6.54,19.2,6.11,27.48,6.98c8.29,0.87,16.14,3.05,22.69,3.05
		s3.49,6.54,3.49,9.16s-3.93,4.8-10.47,6.54c-6.54,1.75-22.41,3.49-34.55,10.03c-12.13,6.54-14.75,8.73-20.86,8.73
		c-6.11,0-13.52,0-15.71-3.05c-2.18-3.05-2.62-9.6-4.36-6.98c-1.75,2.62-2.62,10.91,1.31,18.76c3.93,7.85,5.67,12.65,25.3,13.96
		c19.63,1.31,50.72-3.93,60.04-10.91s10.19-5.67,23.72-10.91c13.52-5.24,29.67-4.8,35.34-18.76c5.67-13.96,4.8-26.18,0-34.9
		c-4.8-8.73-13.52-17.45-17.45-22.69c-3.93-5.24-10.03-16.14-17.01-17.45c-6.98-1.31-18.32,0.44-24.87,0
		c-6.54-0.44-16.58-2.3-20.07-0.5S326.45,86.91,326.45,86.91z"/>
	<path class="st1" d="M306.82,97.38c0,0-7.85,2.18-7.85,7.42c0,0-1.31,2.62,3.93,0c5.24-2.62,5.24-2.62,5.24-2.62"/>
	<path class="st1" d="M365.72,97.38c0,0,6.11-12.22,12.22-10.03c6.11,2.18,7.85,7.85,7.85,10.03s-6.06,1.59-8.29,1.75
		C375.7,99.25,369.73,100.82,365.72,97.38z"/>
	<path class="st1" d="M374.25,92.33c0,0,0.92,1.51,1.5,3.39c0.58,1.89,2.47,3.39,2.47,0S376.71,89.13,374.25,92.33z"/>
	<path class="st1" d="M326.45,86.91c0,0,13.67,5.42,15.54,10.47"/>
	<path class="st1" d="M308.13,89.34c0,0,8.31,3.1,12.67,8.41"/>
	<path class="st1" d="M363.19,143.25c0,0,19.01,1.25,24.62-3.12"/>
	<path class="st1" d="M267.99,121.81v14.27c0,0,7.62-4.61,8.56-7.14c0.93-2.52,0,9.56,0,9.56s7.17-3.36,8.41-6.16
		c1.25-2.8,1.25-2.8,1.25-2.8s1.87,6.1,1.87,8.97c0,2.87,3.12,1.63,3.12,1.63s6.21-3.74,7.63-4.67c1.41-0.93,2.04-2.49,2.04-2.49
		l0.85-1.86"/>
	<path class="st1" d="M334.22,137.77c0,0-3.6,6.35-4.59,8.33c-0.99,1.98-2.01,3.76-3.18,3.76c-1.18,0-3.75-2.57-4.74-4.56
		c-0.99-1.98-0.99-1.98-1.8-4.26c-0.46-1.28-0.53-5.13-0.53-5.13s-0.04,1.27-1.23,3.73c-1.19,2.46-5.94,4.67-7.13,5.46
		c-1.19,0.79-2.97,3.96-4.16,0c-1.19-3.96-1.27-12.87-1.27-12.87"/>
	<path class="st1" d="M335.76,138.51c0,0,1.43,7.42,2.09,8.75c0.66,1.32,4.63-0.99,5.29-2.09s3.42-5.03,3.42-5.03"/>
	<path class="st1" d="M350.68,151.9c0,0-5.77-6.63-7.53-6.74"/>
	<line class="st1" x1="337.85" y1="147.26" x2="338.36" y2="156.26"/>
	<line class="st1" x1="329.63" y1="146.1" x2="337.38" y2="156.46"/>
	<path class="st1" d="M324.24,148.53l1.99,10.27c-1.05-3.22-12.06-11.55-12.06-11.55s-2.2,3.2-2.31,6.72s0,9.42,0,9.42
		s-3.09-0.93-7.27-4.46c-4.19-3.53-6.06-4.85-7.38-4.96c-1.32-0.11-1.43,2.42-1.43,6.39c0,3.97-0.11,7.38,0,7.83s0.54,2.68,2.25,2.5
		"/>
	<path class="st1" d="M294.78,172.32c0,0-2.78-4.23-5.31-6.33c-2.54-2.09-6.17-5.84-7.05-6.5s-2.98-0.88-3.64,1.32
		c-0.66,2.2,0.33,5.18,0,7.61c-0.33,2.42,0.32,5.54,0.32,5.54"/>
	<path class="st1" d="M267.99,163.92c0,0,0.64-1.9,1.3-3c0.66-1.1,1.98-1.94,1.98-1.94s3.75,3.48,4.74,5.58
		c0.99,2.09,2.52,6.83,2.52,6.83"/>
	<path class="st1" d="M291.2,140.14c0,0-3.82,7.15-8.23,9.72c-4.41,2.58-9.8,6.77-9.7,10.4"/>
	<path class="st1" d="M270.29,151.9"/>
	<path class="st1" d="M268.76,161.99c0,0-0.32-2.72,0-4.75c0.32-2.03,1.53-4.06,1.53-4.06s2.04,0.59,2.36,1.65s1.4,2.75,1.4,2.75"/>
	<path class="st1" d="M269.24,155.31c-0.27-2.67,0-6.4,0-6.4s1.68-0.11,2.1,0.27c0.41,0.37,0.79,1.97,0.79,1.97v2.56"/>
	<path class="st1" d="M282.97,149.86l-0.73-11.35c0,0,3.41-2.8,5.85,0"/>
	<path class="st1" d="M282.23,143.56l-3.69-3.43c0,0-2.78-0.52-3.08,2.95c-0.3,3.46,0.15,4.56,0,7.12s0.76,4.66,0.76,4.66"/>
	<path class="st1" d="M271.33,146.1v3.08V146.1z"/>
	<path class="st1" d="M275.36,146.1c0,0,0.1-3.01-3.24-2.68l-0.79,2.68"/>
	<polyline class="st1" points="377.06,175.04 378.08,188.21 377.77,189.99 	"/>
	<path class="st1" d="M255.76,389.18l-2.21,4.11c0,0-5.66,15.77-10.51,32.35c-4.85,16.58-8.49,29.12-8.49,37.61
		s-2.43,19.01-2.43,22.65c0,3.64,4.04,10.11,16.58,10.11c12.54,0,35.01,1.62,42.94-0.62c0,0,2.85-1.2,5.61-2.13
		c2.76-0.92,6.72-2.37,6.72-2.37l6.18-13.08l2.47,15.45c0,0,6.45,4.37,10.65,4.77c4.2,0.4,9.96,12.13,18.67,12.94
		s26.87,0.81,34.96-4.04s10.86-10.77,10.86-10.77s-0.35-3.39,0-6.22c0.35-2.83,0.46-4.85-0.53-6.07c-0.99-1.21,0.59-3.64,0.53-8.09
		c-0.06-4.45-1.15-2.83,0-9.3s1.27-14.56,2.08-27.1c0.81-12.54,0.36-43.12,0.36-43.12"/>
	<path class="st1" d="M312.01,418.77c1.44,6.07,2.61,9.71,3.01,23.05c0.4,13.35-1.21,14.15-3.01,23.86s-1.86,12.13-1.86,12.13"/>
	<path class="st1" d="M317.85,417.96c0,0,1.21,7.68,0,12.54"/>
	<path class="st1" d="M243.89,370.68c0,0,2.47-1.32,2.47,5.04s5.85,9.91,9.4,13.47c0,0,4,5.24,6.12,4.9s-0.24-3.58-0.24-3.58
		c-1.74-2.23-5.89-8.44-5.89-8.44"/>
	<path class="st1" d="M261.89,378.76c0,0,3.09,7.17,6.11,7.52c0,0,3.25,4.14,5.61,2.9s0.31-4.79-1.74-7.12
		c-2.05-2.32-1.64-6.86-1.64-6.86c-0.99-4.57-0.85-8.39,1.3-7.12c0,0,8.86,5.68,10.71,3.44c3.92-4.75-1.6-3.82-5.83-6.37
		c-4.23-2.54-6.93-2.01-8.41-4.45c-1.48-2.44-1.48-2.44-1.48-2.44"/>
	<path class="st1" d="M267.99,386.29l2.23,3.13c0,0-2.69,2.42-8.57,1.09"/>
	<path class="st1" d="M402.56,362.43c0,0-5.37,2.72-12.37,1.92s-15.83-1.15-20.12-1.92c-4.28-0.76-10.18-1-10.18,2.06
		c0,3.07,4.82,3.6,6.96,4.14c2.14,0.54,5.89,0.7,5.89,2.9s-2.68,3.8-6.7,6.21s-5.62,1.07-7.5,3.75s1.07,4.28,4.02,4.28
		c2.95,0,10.44-2.08,10.44-2.08c0.8,2.62-4.34,3.02-7.7,4.22c-3.24,1.16-6.17,0.59-6.87,3.5s1.85,7.24,3.26,7.22
		c2.56-0.03,2.33-0.58,6.87-0.82c4.54-0.23,12.41-5.01,11.68-3.26c-0.73,1.75-5.86,3.45-7.72,4.52s-6.41,5.14-2.21,5.14
		s9.89-1.68,14.26-4.22s4.21-3.7,8.6-4.75c4.39-1.05,7.77-2.56,11.49-5.36c3.73-2.8,5.56-7.74,8.54-6.55"/>
	<path class="st1" d="M184.99,654.17c0,0,11.64,8.26,23.28,8.26c11.64,0,31.16-2.63,40.55-6.76s18.77-10.89,22.53-11.26
		s3.75-0.38,3.75-0.38s-1.13,6.38,0,9.2s3.41,3.94-1.49,5.44c-4.89,1.5-20.66,1.5-34.55,6.01c-13.89,4.51-31.91,3.75-42.42,1.88
		c-10.51-1.88-17.64-6.76-17.64-8.63C178.98,656.05,184.99,654.17,184.99,654.17z"/>
	<path class="st1" d="M184.99,654.17c0-6.01,11.64-7.51,16.89-10.14c5.26-2.63,9.39-7.13,18.77-13.89
		c9.39-6.76,11.47-13.52,11.47-13.52s4.23-0.38,3.51-7.51c-0.71-7.13,0.41-9.39,4.17-7.13c3.75,2.25,6.38,7.88,9.39,12.01
		s0,5.26,0,5.26s-2.63,1.5-5.26,4.13c-2.63,2.63-7.48,7.13-11.81,10.51c-4.33,3.38-12.36,10.14-12.36,10.14"/>
	<path class="st1" d="M265.43,646.84c0,0-14.74,6.2-23,5.45c-8.26-0.75-11.26-7.51-18.02-8.26c-6.76-0.75-13.14,2.42-15.85,0
		c-2.71-2.42-2.71-2.42-2.71-2.42"/>
	<path class="st1" d="M249.19,619.25c10.51,3.38,22.15-1.5,22.15-1.5s1.9,8.26,2.27,13.14c0.36,4.88,1.49,3.94,1.49,13.14"/>
	<path class="st1" d="M330.97,592.07c0,0,0.32,7.66,0,12.77s-0.99,18.82,0.14,22.82c1.14,4,5.6,8.47,9.75,8.47
		s13.73,0.96,14.05-3.51c0.32-4.47-1.6-6.7,0-16.6c1.6-9.9,1.6-13.09,1.6-18.52s-8.47-4.79-13.02-5.43
		C338.95,591.43,330.97,592.07,330.97,592.07z"/>
	<path class="st1" d="M354.92,632.62c0,0,4.95,0,5.47,2.06"/>
	<path class="st1" d="M332.69,630.89c0,0-5.27,1.41-5.15,3.78"/>
	<path class="st1" d="M328.83,647.77c0,0-0.18,7.81,1.28,11.03c1.46,3.22,8.47,4.76,14.38,4.98c5.91,0.22,12.49,0.35,15.88-4.98
		s3.14-5.32,1.95-16.27"/>
	<path class="st1" d="M228.01,623.38c7.35-6.76,15.92,0,15.92,0"/>
	<path class="st1" d="M330.63,611.62c0,0,16.07-9.15,25.24-2.17"/>
	<path class="st1" d="M323.27,498.04c0,0,0.98,22.57,1.39,29.85c0.41,7.29,2.61,17.65,2.88,27.98c0.27,10.33,1.05,30.34,0,43.06"/>
	<path class="st1" d="M376.9,506.93c0,0-1.64,12.76-3.29,20.69s0.08,5.82-3.76,18.54s-1.56,14.24-2.76,19.04
		c-1.2,4.8-4.5,17.49-5.51,22.05c-1.01,4.56-5.07,13.86-5.07,13.86c0.12-2.72,1.92,0.04,1.92,0.04s-0.96,17.1,0,24.45
		c0.96,7.34,4.47,15.65,3.83,21.39c-0.64,5.74-5.75,12.13-13.41,11.81c-7.66-0.32-16.31,0.33-18.37-4.63
		c-2.06-4.95-3.02-16.38-3.02-23.28c0-6.9-3.68-22.54-2.8-26.37c0.88-3.83,5.19-9.25,5.82-6.7"/>
	<path class="st1" d="M237.05,493.26c0,0,1.66,2.12-1.08,18.11c-2.74,16-4.96,24.28-3.85,34.72s0.66,11.97,2.57,25.17
		s5.11,30.72,5.11,30.72"/>
	<path class="st1" d="M271.34,617.75c0,0-0.42-2.6,3.75-22.86s4.78-26.09,4.78-34.99s0-19.33,0-28.24c0-8.9,3.68-14.81,3.68-20.29
		c0-5.49,4.92-15.99,4.92-15.99"/>
	<path class="st1" d="M267.99,454c0,0,16.92,16.13,25.48,17.59c8.56,1.47,12.12,0,12.12,0"/>
	<path class="st1" d="M345.8,370.19c0,0,1.27,9.53,1.11,17.72"/>
	<path class="st1" d="M336.53,634.67c0,0,15.63-0.97,17.23,0"/>
	<path class="st1" d="M334.07,632.62c0,0,14.47-3.19,20.84-1.12"/>
	<path class="st1" d="M354.6,627.77c0,0-15.44-1.32-22.17,2.18"/>
	<path class="st1" d="M331.11,627.66c0,0,15.97-5.64,23.21-2.65"/>
	<path class="st1" d="M354.33,622.96c0,0-14.91-4.52-23.69,0.82"/>
	<path class="st1" d="M330.63,620.44c0,0,16.96-4.42,23.69-0.82"/>
	<path class="st1" d="M354.75,617.11c0,0-12.91-4.02-24.27-0.21"/>
	<path class="st1" d="M330.63,614c0,0,20.25-4.41,24.73-0.83"/>
	<path class="st1" d="M221.01,642.99c0,0-6.99-3.36-13.93-2.28"/>
	<path class="st1" d="M210.6,637.92c0,0,9.11-2.14,13.4,2.57"/>
	<path class="st1" d="M227.05,637.98c0,0-4.28-5.21-11.96-3.64"/>
	<path class="st1" d="M219.62,630.89c0,0,10.35,0.09,10.24,4.8"/>
	<path class="st1" d="M232.12,633.9c0,0-5.09-7.21-9.34-5.38"/>
	<path class="st1" d="M225.61,625.98c0,0,8.98,0.65,10.36,4.75"/>
	<path class="st1" d="M240.46,626.72c0,0-6.62-4.09-13.01-2.68"/>
	<path class="st1" d="M242.26,625.01c0,0-6.35-3.91-13.27-2.45"/>
</g>
</svg>
